<?xml version="1.0" standalone="no"?>
<!DOCTYPE svg PUBLIC "-//W3C//DTD SVG 20010904//EN"
 "http://www.w3.org/TR/2001/REC-SVG-20010904/DTD/svg10.dtd">
<svg version="1.0" xmlns="http://www.w3.org/2000/svg"
 width="1024.000000pt" height="1024.000000pt" viewBox="0 0 1024.000000 1024.000000"
 preserveAspectRatio="xMidYMid meet">
<metadata>
Created by potrace 1.14, written by Peter Selinger 2001-2017
</metadata>
<g transform="translate(0.000000,1024.000000) scale(0.100000,-0.100000)"
fill="#000000" stroke="none">
<path d="M3207 8834 c-1 -1 -46 -4 -99 -8 -53 -3 -103 -8 -110 -10 -7 -3 -31
-7 -53 -10 -139 -17 -364 -90 -534 -173 -266 -130 -493 -310 -681 -543 -72
-89 -196 -282 -232 -360 -50 -109 -69 -154 -98 -240 -70 -209 -101 -388 -104
-615 -8 -576 268 -1163 725 -1538 248 -204 581 -358 892 -413 51 -9 102 -18
115 -20 l22 -4 0 -435 0 -435 -27 -6 c-191 -43 -366 -117 -517 -219 -98 -65
-269 -228 -332 -315 -206 -280 -294 -565 -281 -899 11 -258 82 -483 223 -698
95 -148 197 -258 329 -357 62 -47 219 -146 230 -146 2 0 28 -11 57 -25 107
-50 284 -97 416 -112 281 -31 612 42 840 184 29 18 55 33 58 33 3 0 40 26 82
59 653 497 754 1403 226 2027 -58 68 -66 77 -140 144 -168 152 -460 295 -664
326 -19 3 -41 7 -47 9 -10 3 -13 99 -13 434 l0 431 23 4 c12 3 65 12 117 22
490 88 945 380 1242 796 32 45 58 85 58 90 0 20 66 -12 270 -130 118 -68 235
-136 260 -150 51 -28 420 -241 462 -267 9 -5 29 -17 45 -26 34 -18 363 -207
401 -230 15 -9 44 -26 65 -38 20 -11 53 -30 72 -41 19 -11 50 -28 68 -38 41
-24 163 -94 185 -107 9 -6 45 -26 79 -45 35 -19 65 -40 67 -47 3 -7 -6 -34
-20 -60 -132 -250 -152 -568 -53 -851 153 -433 572 -730 1030 -730 283 0 569
120 768 321 204 207 321 478 323 752 1 131 -7 196 -41 313 -117 405 -462 714
-876 785 -79 14 -277 15 -345 3 -209 -39 -422 -144 -569 -282 -35 -32 -66 -60
-70 -62 -7 -2 -418 230 -571 323 -30 18 -82 48 -115 66 -33 18 -89 50 -124 71
-34 21 -65 38 -66 38 -2 0 -55 30 -117 66 -62 37 -133 78 -158 92 -48 27 -267
153 -525 302 -88 51 -185 107 -216 124 -31 17 -67 38 -79 47 l-24 16 47 124
c48 125 101 318 113 406 3 27 9 75 14 108 23 164 5 426 -44 654 -9 41 -14 76
-12 78 3 4 1260 321 1336 338 8 2 139 35 291 74 285 73 319 80 319 59 0 -19
69 -117 115 -164 107 -110 273 -184 425 -189 292 -10 569 201 634 485 25 108
26 163 3 280 -10 51 -51 147 -86 200 -32 50 -107 131 -157 170 -35 27 -158 88
-204 100 -79 21 -93 23 -172 22 -349 -4 -631 -297 -625 -648 l2 -92 -945 -237
c-520 -131 -956 -240 -970 -242 -23 -4 -28 1 -49 54 -37 92 -125 255 -192 356
-34 50 -64 94 -68 97 -3 3 -24 28 -46 55 -83 103 -238 250 -350 331 -304 219
-630 344 -991 380 -62 6 -232 12 -237 8z"/>
</g>
</svg>
